<!-- This is a placeholder. You'll want to replace with actual PNG icons -->
<!-- Use a tool like https://realfavicongenerator.net/ to generate proper icons -->

<!-- For now, create simple SVG-based icons that can be converted to PNG -->

<svg width="192" height="192" viewBox="0 0 192 192" fill="none" xmlns="http://www.w3.org/2000/svg">
  <rect width="192" height="192" rx="24" fill="#2563eb"/>
  <path d="M48 96C48 69.49 69.49 48 96 48C122.51 48 144 69.49 144 96C144 122.51 122.51 144 96 144C69.49 144 48 122.51 48 96Z" fill="white"/>
  <path d="M96 72C85.51 72 77.02 80.49 77.02 91C77.02 101.51 85.51 110 96 110C106.49 110 114.98 101.51 114.98 91C114.98 80.49 106.49 72 96 72ZM96 102C89.93 102 85.02 97.07 85.02 91C85.02 84.93 89.93 80 96 80C102.07 80 107 84.93 107 91C107 97.07 102.07 102 96 102Z" fill="#2563eb"/>
  <path d="M96 114C81.67 114 69.33 122.33 64 134H128C122.67 122.33 110.33 114 96 114Z" fill="#2563eb"/>
</svg>
